<svg width="531" height="518" viewBox="0 0 531 518" fill="none" xmlns="http://www.w3.org/2000/svg">
<g clip-path="url(#clip0_796_1101)">
<path d="M53.2023 471.618L52.3898 452.675C43.9197 447.98 34.4725 445.5 24.8684 445.451C38.0865 456.656 36.4346 478.257 45.3962 493.326C48.2259 498.003 52.0346 501.961 56.5398 504.905C61.0451 507.849 66.1315 509.703 71.4221 510.332L82.4834 517.354C84.0012 508.581 83.6666 499.57 81.5026 490.943C79.3386 482.316 75.3966 474.279 69.9483 467.384C66.8549 463.547 63.3078 460.129 59.3908 457.212C56.7415 464.455 53.2023 471.618 53.2023 471.618Z" fill="#F2F2F2"/>
<path d="M352.401 123.705H194.117C187.453 123.705 182.052 129.306 182.052 136.215V220.967C182.052 227.876 187.453 233.477 194.117 233.477H352.401C359.065 233.477 364.466 227.876 364.466 220.967V136.215C364.466 129.306 359.065 123.705 352.401 123.705Z" fill="white"/>
<path d="M352.402 234.322H194.117C190.702 234.318 187.429 232.91 185.014 230.406C182.6 227.902 181.242 224.508 181.238 220.968V136.215C181.242 132.674 182.6 129.28 185.014 126.776C187.429 124.273 190.702 122.865 194.117 122.861H352.402C355.816 122.865 359.089 124.273 361.504 126.777C363.918 129.28 365.276 132.674 365.28 136.215V220.968C365.276 224.508 363.918 227.902 361.504 230.406C359.089 232.909 355.816 234.318 352.402 234.322ZM194.117 124.549C191.134 124.553 188.274 125.783 186.165 127.97C184.056 130.157 182.87 133.122 182.866 136.215V220.968C182.87 224.06 184.056 227.026 186.165 229.212C188.274 231.399 191.134 232.63 194.117 232.633H352.402C355.384 232.629 358.244 231.399 360.353 229.212C362.462 227.025 363.648 224.06 363.651 220.968V136.215C363.648 133.122 362.462 130.157 360.353 127.97C358.244 125.783 355.384 124.553 352.402 124.549H194.117Z" fill="#3F3D56"/>
<path d="M518.529 110.617H360.244C356.937 110.613 353.767 109.249 351.429 106.825C349.091 104.401 347.775 101.113 347.772 97.6848V12.932C347.775 9.5033 349.091 6.21619 351.429 3.7918C353.767 1.36741 356.937 0.00375248 360.244 0H518.529C521.835 0.0039224 525.005 1.36766 527.343 3.79204C529.681 6.21642 530.996 9.50343 531 12.932V97.6848C530.996 101.113 529.681 104.4 527.343 106.825C525.005 109.249 521.835 110.613 518.529 110.617Z" fill="#F2F2F2"/>
<path d="M518.529 357.182H360.244C356.937 357.179 353.767 355.815 351.429 353.39C349.09 350.966 347.775 347.679 347.772 344.25V259.498C347.775 256.069 349.091 252.782 351.429 250.357C353.767 247.933 356.937 246.569 360.244 246.566H518.529C521.835 246.569 525.005 247.933 527.343 250.358C529.681 252.782 530.996 256.069 531 259.498V344.25C530.996 347.679 529.681 350.966 527.343 353.39C525.005 355.815 521.835 357.178 518.529 357.182Z" fill="#F2F2F2"/>
<path d="M318.783 166.49C317.732 162.507 315.573 158.933 312.576 156.214C309.578 153.496 305.874 151.754 301.927 151.205C301.839 151.191 301.756 151.209 301.669 151.203C301.557 151.165 301.442 151.136 301.326 151.116C282.914 148.52 261.661 158.128 253.987 177.173C250.188 171.683 244.131 168.136 237.652 168.488C229.388 168.938 222.094 175.503 219.859 184.137C219.736 184.655 219.77 185.201 219.956 185.7C220.142 186.198 220.471 186.625 220.899 186.923C222.1 188.04 223.543 188.839 225.105 189.253C228.449 190.026 231.804 190.734 235.172 191.377C241.743 192.632 248.348 193.646 254.988 194.42C268.46 195.996 282.025 196.556 295.576 196.094C300.088 195.941 304.44 195.778 308.574 193.605C311.615 191.953 314.185 189.505 316.031 186.505C317.808 183.551 318.971 180.245 319.445 176.799C319.919 173.352 319.694 169.841 318.783 166.49Z" fill="#3F3D56"/>
<path d="M316.753 167.499C315.758 163.966 313.77 160.82 311.043 158.464C308.207 156.066 304.782 154.537 301.153 154.05H300.933L300.729 154.012C300.664 153.991 300.598 153.975 300.531 153.963C294.459 153.215 288.306 153.672 282.399 155.308C271.045 158.405 260.292 165.736 255.272 177.563L254.555 179.261L253.483 177.78C251.835 175.445 249.687 173.537 247.208 172.206C244.729 170.876 241.986 170.159 239.195 170.112C238.923 170.112 238.651 170.118 238.374 170.134C234.595 170.386 230.984 171.845 228.036 174.31C225.088 176.776 222.949 180.126 221.911 183.903C221.858 184.176 221.889 184.459 222 184.713C222.111 184.967 222.295 185.179 222.528 185.318L222.612 185.383C223.666 186.31 224.914 186.969 226.257 187.308C229.504 188.024 232.81 188.686 236.078 189.277C242.417 190.426 248.923 191.375 255.408 192.097C266.877 193.373 278.411 193.929 289.945 193.761C291.635 193.74 293.32 193.702 295.003 193.648C299.333 193.512 303.428 193.376 307.308 191.44C310.089 190.012 312.464 187.859 314.201 185.193C315.846 182.615 316.926 179.696 317.367 176.639C317.808 173.582 317.598 170.463 316.753 167.499Z" fill="white"/>
<path d="M289.945 193.761C278.411 193.929 266.877 193.373 255.408 192.097C248.923 191.375 242.417 190.426 236.078 189.277C232.81 188.686 229.504 188.024 226.257 187.308C224.914 186.969 223.666 186.31 222.612 185.383L222.528 185.318C222.295 185.179 222.111 184.967 222 184.713C221.889 184.459 221.858 184.176 221.911 183.903C222.949 180.126 225.088 176.776 228.036 174.31C230.984 171.845 234.595 170.386 238.374 170.134C238.651 170.118 238.923 170.113 239.195 170.113C241.986 170.159 244.729 170.876 247.208 172.206C249.687 173.537 251.835 175.445 253.483 177.78L254.555 179.261L255.272 177.563C260.292 165.736 271.045 158.405 282.399 155.308C284.689 157.456 286.164 160.747 285.328 163.8C284.318 167.504 280.323 169.814 279.653 173.599C279.041 177.054 281.426 180.264 283.879 182.683C286.332 185.096 289.171 187.52 289.883 190.947C290.073 191.873 290.094 192.827 289.945 193.761Z" fill="#4B91CB"/>
<path d="M299.804 183.236C305.003 183.236 309.217 178.866 309.217 173.475C309.217 168.084 305.003 163.714 299.804 163.714C294.605 163.714 290.39 168.084 290.39 173.475C290.39 178.866 294.605 183.236 299.804 183.236Z" fill="#3F3D56"/>
<path d="M303.75 172.433L300.22 168.773C300.165 168.716 300.1 168.671 300.029 168.641C299.957 168.61 299.881 168.594 299.804 168.594C299.726 168.594 299.65 168.61 299.578 168.641C299.507 168.671 299.442 168.716 299.388 168.773L295.857 172.433C295.803 172.49 295.759 172.557 295.729 172.631C295.7 172.705 295.684 172.785 295.684 172.865C295.684 172.945 295.699 173.024 295.729 173.099C295.759 173.173 295.802 173.24 295.857 173.297C295.911 173.354 295.976 173.398 296.048 173.429C296.119 173.46 296.196 173.476 296.273 173.475C296.351 173.475 296.427 173.459 296.499 173.429C296.57 173.398 296.635 173.353 296.689 173.296L299.215 170.677V177.745C299.215 177.907 299.277 178.062 299.388 178.177C299.498 178.291 299.648 178.355 299.804 178.355C299.96 178.355 300.109 178.291 300.22 178.177C300.33 178.062 300.392 177.907 300.392 177.745V170.677L302.918 173.296C303.028 173.41 303.178 173.473 303.333 173.473C303.489 173.473 303.638 173.408 303.748 173.294C303.858 173.18 303.92 173.026 303.92 172.864C303.921 172.703 303.859 172.548 303.75 172.433H303.75Z" fill="white"/>
<path d="M470.326 80.2697H414.161C413.017 80.2683 411.92 79.7966 411.111 78.9579C410.303 78.1192 409.848 76.9821 409.846 75.7961V22.628C409.848 21.442 410.303 20.3049 411.111 19.4663C411.92 18.6276 413.017 18.1559 414.161 18.1546H470.326C471.47 18.1559 472.567 18.6276 473.376 19.4663C474.185 20.3049 474.639 21.442 474.641 22.628V75.7961C474.639 76.9821 474.185 78.1192 473.376 78.9579C472.567 79.7966 471.47 80.2683 470.326 80.2697Z" fill="white"/>
<path d="M470.327 81.1141H414.161C412.801 81.1125 411.498 80.5517 410.536 79.5548C409.575 78.5578 409.034 77.2061 409.032 75.7962V22.6281C409.034 21.2182 409.575 19.8665 410.536 18.8695C411.498 17.8726 412.801 17.3118 414.161 17.3102H470.327C471.686 17.3118 472.99 17.8726 473.951 18.8695C474.913 19.8665 475.454 21.2182 475.455 22.6281V75.7962C475.454 77.2061 474.913 78.5578 473.951 79.5548C472.99 80.5517 471.686 81.1125 470.327 81.1141ZM414.161 18.999C413.233 19.0002 412.343 19.3829 411.687 20.0632C411.031 20.7436 410.662 21.666 410.661 22.6281V75.7962C410.662 76.7584 411.031 77.6808 411.687 78.3611C412.343 79.0415 413.233 79.4242 414.161 79.4254H470.327C471.255 79.4242 472.144 79.0415 472.8 78.3611C473.456 77.6808 473.825 76.7584 473.827 75.7962V22.6281C473.825 21.666 473.456 20.7435 472.8 20.0632C472.144 19.3829 471.255 19.0001 470.327 18.999L414.161 18.999Z" fill="#CCCCCC"/>
<path d="M430.709 43.356C434.575 43.356 437.71 40.1059 437.71 36.0966C437.71 32.0874 434.575 28.8373 430.709 28.8373C426.842 28.8373 423.708 32.0874 423.708 36.0966C423.708 40.1059 426.842 43.356 430.709 43.356Z" fill="#CCCCCC"/>
<path d="M458.694 54.3897H425.792C425.24 54.3897 424.709 54.162 424.318 53.7566C423.927 53.3512 423.708 52.8014 423.708 52.2281C423.708 51.6548 423.927 51.1049 424.318 50.6995C424.709 50.2941 425.24 50.0664 425.792 50.0664H458.694C459.247 50.0664 459.777 50.2941 460.168 50.6995C460.559 51.1049 460.779 51.6548 460.779 52.2281C460.779 52.8014 460.559 53.3512 460.168 53.7566C459.777 54.162 459.247 54.3897 458.694 54.3897Z" fill="#CCCCCC"/>
<path d="M441.669 62.9317H425.793C425.24 62.9317 424.709 62.7039 424.318 62.2985C423.927 61.8931 423.708 61.3432 423.708 60.7699C423.708 60.1965 423.927 59.6467 424.318 59.2412C424.709 58.8358 425.24 58.6081 425.793 58.6081H441.669C441.943 58.6075 442.215 58.663 442.468 58.7714C442.722 58.8798 442.952 59.0389 443.146 59.2397C443.34 59.4405 443.494 59.679 443.599 59.9416C443.704 60.2042 443.758 60.4856 443.758 60.7699C443.758 61.0541 443.704 61.3356 443.599 61.5981C443.494 61.8607 443.34 62.0992 443.146 62.3C442.952 62.5008 442.722 62.6599 442.468 62.7683C442.215 62.8767 441.943 62.9322 441.669 62.9317Z" fill="#CCCCCC"/>
<path d="M412.99 95.8741C410.066 95.8741 407.208 94.9751 404.777 93.2908C402.346 91.6066 400.451 89.2127 399.333 86.4118C398.214 83.611 397.921 80.5291 398.491 77.5557C399.062 74.5824 400.47 71.8512 402.537 69.7075C404.604 67.5639 407.238 66.104 410.106 65.5126C412.973 64.9212 415.946 65.2247 418.647 66.3849C421.348 67.545 423.657 69.5096 425.281 72.0303C426.905 74.551 427.772 77.5145 427.772 80.5461C427.772 84.6113 426.215 88.51 423.443 91.3846C420.67 94.2591 416.91 95.8741 412.99 95.8741Z" fill="#CCCCCC"/>
<path d="M418.822 79.0341H414.448V74.498C414.447 74.0976 414.293 73.7139 414.02 73.4312C413.746 73.1484 413.376 72.9896 412.99 72.9896C412.604 72.9896 412.233 73.1484 411.96 73.4312C411.686 73.7139 411.532 74.0976 411.532 74.498V79.0341H407.157C406.77 79.0341 406.399 79.1934 406.126 79.4769C405.852 79.7605 405.699 80.1451 405.699 80.5461C405.699 80.9471 405.852 81.3317 406.126 81.6152C406.399 81.8988 406.77 82.0581 407.157 82.0581H411.532V86.5941C411.532 86.9951 411.685 87.3797 411.959 87.6633C412.232 87.9468 412.603 88.1061 412.99 88.1061C413.376 88.1061 413.747 87.9468 414.021 87.6633C414.294 87.3797 414.448 86.9951 414.448 86.5941V82.0581H418.822C419.209 82.0581 419.58 81.8988 419.854 81.6152C420.127 81.3316 420.281 80.9471 420.281 80.546C420.281 80.145 420.127 79.7605 419.854 79.4769C419.58 79.1933 419.209 79.034 418.822 79.034V79.0341Z" fill="white"/>
<path d="M412.008 321.647C411.978 321.647 411.949 321.646 411.919 321.645C411.572 321.632 411.232 321.532 410.93 321.354C410.628 321.175 410.371 320.924 410.183 320.621C408.771 318.433 407.039 316.487 405.048 314.854C403.843 313.855 402.584 312.926 401.366 312.028C398.225 309.712 395.266 307.531 393.624 304.517C390.044 297.944 394.26 288.789 400.284 284.684C407.041 280.079 415.928 279.357 424.526 279.262C425.419 279.253 426.313 279.248 427.208 279.248C442.699 279.254 458.157 280.72 473.392 283.627C478.458 284.596 483.761 285.783 488.022 288.664C492.258 291.528 494.833 296.039 494.582 300.155C494.215 306.165 488.071 310.655 482.477 311.829C477.144 312.947 471.605 312.192 465.741 311.391C464.446 311.215 463.107 311.032 461.784 310.873C447.397 309.149 420.371 314.464 419.227 314.691L418.093 314.916L413.691 320.789C413.494 321.057 413.239 321.274 412.947 321.422C412.654 321.571 412.333 321.648 412.008 321.647Z" fill="white"/>
<path d="M412.008 322.491L411.898 322.49C411.419 322.473 410.951 322.337 410.534 322.092C410.117 321.847 409.763 321.502 409.502 321.084C408.138 318.971 406.464 317.091 404.54 315.513C403.349 314.526 402.101 313.607 400.894 312.717C397.68 310.347 394.646 308.11 392.916 304.932C389.114 297.954 393.512 288.289 399.837 283.978C406.768 279.254 415.795 278.515 424.517 278.418C425.414 278.408 426.311 278.403 427.208 278.403C442.748 278.409 458.256 279.88 473.54 282.796C478.687 283.781 484.079 284.989 488.467 287.956C492.944 290.984 495.664 295.794 495.395 300.209C495.002 306.637 488.529 311.42 482.638 312.657C477.171 313.803 471.567 313.039 465.635 312.228C464.344 312.052 463.01 311.871 461.69 311.712C447.389 310.002 420.518 315.294 419.381 315.521L418.548 315.686L414.334 321.307C414.06 321.676 413.708 321.975 413.305 322.181C412.901 322.386 412.458 322.492 412.008 322.491ZM427.208 280.092C426.316 280.092 425.425 280.097 424.534 280.107C416.06 280.2 407.311 280.905 400.732 285.389C395.009 289.29 390.973 297.933 394.333 304.101C395.886 306.951 398.777 309.083 401.836 311.339C403.063 312.244 404.33 313.178 405.557 314.194C407.614 315.883 409.405 317.895 410.864 320.158C410.982 320.348 411.142 320.506 411.332 320.618C411.521 320.73 411.734 320.793 411.952 320.802L412.008 320.802C412.209 320.804 412.408 320.757 412.589 320.664C412.769 320.572 412.927 320.438 413.048 320.271L417.639 314.147L419.074 313.862C420.22 313.633 447.33 308.288 461.877 310.035C463.205 310.194 464.548 310.377 465.847 310.554C471.641 311.346 477.113 312.093 482.315 311.001C487.613 309.89 493.428 305.691 493.769 300.101C494.002 296.284 491.571 292.072 487.577 289.372C483.441 286.575 478.229 285.41 473.244 284.457C458.058 281.559 442.649 280.098 427.208 280.092H427.208Z" fill="#CCCCCC"/>
<path d="M476.073 292.331H415.266C414.916 292.33 414.58 292.185 414.332 291.928C414.085 291.67 413.946 291.322 413.946 290.959C413.946 290.595 414.085 290.247 414.332 289.99C414.58 289.733 414.916 289.588 415.266 289.587H476.073C476.424 289.588 476.759 289.733 477.007 289.99C477.254 290.247 477.393 290.595 477.393 290.959C477.393 291.322 477.254 291.67 477.007 291.928C476.759 292.185 476.424 292.33 476.073 292.331Z" fill="#CCCCCC"/>
<path d="M476.073 300.751H415.266C415.092 300.752 414.92 300.717 414.759 300.648C414.598 300.58 414.451 300.479 414.328 300.351C414.205 300.224 414.107 300.073 414.04 299.906C413.973 299.74 413.939 299.561 413.938 299.381C413.938 299.2 413.972 299.022 414.039 298.855C414.105 298.688 414.203 298.537 414.326 298.409C414.449 298.282 414.595 298.18 414.756 298.112C414.917 298.043 415.089 298.007 415.263 298.007H476.073C476.424 298.008 476.759 298.153 477.007 298.41C477.254 298.668 477.393 299.016 477.393 299.379C477.393 299.743 477.254 300.091 477.007 300.348C476.759 300.605 476.424 300.75 476.073 300.751Z" fill="#CCCCCC"/>
<path d="M422.352 309.172H415.266C414.915 309.171 414.58 309.026 414.332 308.769C414.085 308.511 413.946 308.163 413.946 307.8C413.946 307.436 414.085 307.088 414.332 306.831C414.58 306.574 414.915 306.429 415.266 306.428H422.352C422.702 306.429 423.038 306.574 423.285 306.831C423.533 307.088 423.672 307.436 423.672 307.8C423.672 308.163 423.533 308.511 423.285 308.769C423.038 309.026 422.702 309.171 422.352 309.172Z" fill="#CCCCCC"/>
<path d="M411.945 337.054C416.81 337.054 420.754 332.965 420.754 327.92C420.754 322.875 416.81 318.786 411.945 318.786C407.079 318.786 403.135 322.875 403.135 327.92C403.135 332.965 407.079 337.054 411.945 337.054Z" fill="white"/>
<path d="M411.945 337.166C410.181 337.166 408.457 336.624 406.991 335.608C405.524 334.592 404.381 333.148 403.706 331.458C403.031 329.769 402.855 327.91 403.199 326.116C403.543 324.323 404.392 322.675 405.639 321.382C406.886 320.089 408.475 319.209 410.205 318.852C411.935 318.495 413.727 318.678 415.357 319.378C416.986 320.078 418.379 321.263 419.359 322.783C420.338 324.304 420.861 326.091 420.861 327.92C420.859 330.371 419.918 332.722 418.247 334.455C416.575 336.188 414.309 337.163 411.945 337.166Z" fill="#CCCCCC"/>
<path d="M411.285 331.571C411.266 331.571 411.247 331.57 411.229 331.569C411.063 331.561 410.9 331.515 410.753 331.436C410.606 331.357 410.477 331.245 410.375 331.109L408.902 329.146C408.809 329.023 408.741 328.881 408.701 328.73C408.661 328.578 408.65 328.42 408.668 328.264C408.687 328.109 408.735 327.958 408.81 327.822C408.885 327.685 408.985 327.566 409.104 327.469L409.157 327.426C409.277 327.33 409.414 327.259 409.559 327.217C409.705 327.176 409.858 327.164 410.008 327.184C410.158 327.203 410.304 327.253 410.435 327.331C410.567 327.408 410.682 327.512 410.775 327.636C410.85 327.735 410.944 327.816 411.051 327.874C411.159 327.932 411.277 327.965 411.398 327.971C411.518 327.977 411.639 327.956 411.751 327.909C411.864 327.863 411.965 327.791 412.048 327.7L415.037 324.428C415.248 324.198 415.538 324.065 415.843 324.056C416.149 324.047 416.445 324.165 416.667 324.382L416.716 324.431C416.826 324.539 416.914 324.668 416.976 324.811C417.038 324.955 417.072 325.109 417.076 325.266C417.08 325.423 417.054 325.579 417 325.726C416.946 325.872 416.864 326.006 416.76 326.12L412.121 331.197C412.014 331.315 411.884 331.409 411.74 331.473C411.596 331.538 411.441 331.571 411.285 331.571Z" fill="white"/>
<path d="M134.233 282.385C133.881 282.387 133.529 282.421 133.183 282.488L127.416 244.632L133.193 208.188C133.557 205.896 133.068 203.546 131.826 201.612C130.584 199.678 128.681 198.305 126.501 197.768C124.321 197.232 122.026 197.573 120.079 198.723C118.132 199.872 116.677 201.744 116.009 203.962C113.843 211.148 112.771 218.641 112.832 226.169L113.034 251.023L128.408 289.193C128.543 290.357 128.999 291.457 129.722 292.359C130.444 293.261 131.403 293.927 132.482 294.277C133.562 294.627 134.716 294.647 135.806 294.333C136.895 294.019 137.874 293.385 138.625 292.508C139.375 291.631 139.865 290.547 140.036 289.388C140.207 288.229 140.051 287.043 139.587 285.974C139.123 284.904 138.371 283.996 137.421 283.36C136.471 282.723 135.364 282.385 134.233 282.385L134.233 282.385Z" fill="#FFB8B8"/>
<path d="M109.75 209.66C109.749 207.763 110.108 205.885 110.807 204.132C111.506 202.38 112.531 200.787 113.824 199.445C115.117 198.104 116.652 197.039 118.342 196.313C120.031 195.587 121.843 195.213 123.672 195.213C125.501 195.213 127.312 195.587 129.002 196.313C130.691 197.039 132.227 198.104 133.519 199.445C134.812 200.787 135.838 202.38 136.537 204.132C137.236 205.885 137.595 207.763 137.593 209.66L128.544 242.758L112.83 241.948L109.75 209.66Z" fill="#2F2E41"/>
<path d="M142.769 499.992L151.754 499.991L156.028 464.056L142.767 464.057L142.769 499.992Z" fill="#FFB8B8"/>
<path d="M167.43 510.493L153.929 500.824V494.517L152.397 494.61L142.772 495.209L139.726 495.395L137.992 516.961L137.935 517.679H144.311L144.441 516.961L145.451 511.439L148.033 516.961L148.367 517.679H165.272C166.279 517.677 167.244 517.262 167.956 516.524C168.669 515.787 169.071 514.787 169.075 513.744C169.076 513.104 168.926 512.474 168.64 511.908C168.353 511.341 167.938 510.856 167.43 510.493Z" fill="#2F2E41"/>
<path d="M88.8828 478.516L96.0222 484.173L120.462 458.311L109.925 449.963L88.8828 478.516Z" fill="#FFB8B8"/>
<path d="M102.329 502.387L97.2628 486.204L100.956 481.192L99.6853 480.302L91.6862 474.718L89.1573 472.948L75.1508 488.992L74.6853 489.526L79.7518 493.541L80.2754 493.053L84.3116 489.3L83.129 495.314L82.9741 496.094L96.4068 506.738C97.2078 507.37 98.2174 507.648 99.2153 507.511C100.213 507.373 101.118 506.832 101.733 506.006C102.108 505.498 102.358 504.903 102.462 504.273C102.566 503.642 102.52 502.995 102.329 502.387Z" fill="#2F2E41"/>
<path d="M125.333 323.279L134.315 351.862C134.315 351.862 137.507 382.362 140.919 389.118C141.557 390.49 141.996 391.953 142.222 393.458C142.32 393.964 142.393 394.496 142.458 395.028C142.589 396.084 142.678 397.173 142.735 398.271C142.906 402.935 142.713 407.606 142.157 412.237C140.545 413.69 139.364 426.786 138.541 442.94C138.452 444.62 138.368 446.329 138.289 448.065C138.126 451.57 137.98 455.167 137.849 458.781C136.913 483.893 137.434 478.523 137.434 478.523C160.203 482.855 159.267 475.044 159.267 475.044C159.267 475.044 167.084 438.827 169.104 422.328C169.348 420.403 169.495 419.17 169.527 418.815C169.617 417.07 169.926 415.344 170.448 413.681C170.889 413.028 171.284 412.342 171.628 411.629C171.63 411.629 171.631 411.629 171.632 411.629C171.633 411.628 171.634 411.628 171.634 411.627C171.635 411.626 171.636 411.625 171.636 411.624C171.636 411.623 171.637 411.622 171.637 411.621C173.247 407.995 174.155 404.075 174.308 400.086C174.423 398.358 174.429 396.623 174.324 394.893C174.196 384.771 175.022 374.661 176.791 364.706C178.217 357.908 177.288 344.769 176.026 333.514C175.513 328.869 174.935 324.546 174.454 321.126C174.43 320.983 174.414 320.839 174.397 320.696C173.778 316.398 173.322 313.628 173.322 313.628C173.322 313.628 175.399 306.248 173.86 303.52C173.151 302.296 173.249 299.408 173.55 296.554C173.925 293.075 174.625 289.833 174.625 289.833L132.336 282.106C131.449 283.635 130.659 285.112 129.885 286.539C115.903 313.332 125.333 323.279 125.333 323.279Z" fill="#2F2E41"/>
<path d="M113.246 201.008C113.717 199.662 114.506 198.461 115.542 197.515C116.578 196.569 117.826 195.908 119.173 195.594C121.169 195.005 123.246 194.77 125.318 194.897C131.382 195.145 135.655 183.315 141.66 184.227C141.66 184.227 147.311 182.136 151.733 185.968C155.75 189.449 158.519 198.918 159.55 198.379C160.038 198.265 160.544 198.265 161.032 198.38C165.183 198.985 168.96 201.193 171.609 204.562C174.257 207.931 175.581 212.213 175.316 216.551L174.879 224.231C174.879 224.231 177.968 229.053 173.485 237.566L176.087 267.595C176.087 267.595 180.423 309.431 173.909 315.384C167.395 321.338 143.399 295.38 143.399 295.38C143.399 295.38 124.965 292.333 126.056 288.799C127.148 285.265 132.873 275.464 132.873 275.464C133.006 274.917 132.99 274.343 132.827 273.805C132.664 273.268 132.36 272.787 131.949 272.418C130.556 271.495 132.117 269.406 132.235 269.214C132.1 269.354 131.043 270.503 130.237 268.083C129.431 265.663 131.916 262.617 131.916 262.617L124.898 246.949L119.374 234.571L118.703 233.144L114.052 223.186L113.944 222.955C111.489 217.648 110.946 211.605 112.413 205.918C112.897 204.326 113.178 202.675 113.246 201.008Z" fill="#4B91CB"/>
<path d="M98.6465 457.075C115.349 473.693 118.712 466.625 118.712 466.625C118.712 466.625 127.743 455.842 138.541 442.94C142.418 438.313 146.514 433.415 150.504 428.644C156.017 422.049 161.319 415.699 165.537 410.65C170.203 405.051 173.526 401.049 174.308 400.086C174.423 398.358 174.428 396.623 174.324 394.893C174.196 384.772 175.022 374.661 176.791 364.706C178.216 357.908 177.288 344.77 176.026 333.514C174.137 337.592 171.954 342.431 170.146 346.897C168.127 351.871 166.555 356.372 166.311 358.82C165.537 366.361 155.073 378.824 155.073 378.824L154.951 378.85C153.232 379.323 148.387 385.166 142.222 393.458C125.382 416.105 98.6465 457.075 98.6465 457.075Z" fill="#2F2E41"/>
<path d="M235.528 193.043C235.569 193.406 235.642 193.765 235.746 194.114L200.13 204.359L164.554 202.55C162.316 202.436 160.12 203.207 158.408 204.706C156.697 206.205 155.597 208.321 155.331 210.628C155.065 212.935 155.653 215.261 156.975 217.136C158.298 219.011 160.257 220.297 162.458 220.733C169.59 222.147 176.891 222.4 184.097 221.481L207.888 218.448L242.713 198.27C243.814 197.999 244.815 197.405 245.597 196.557C246.379 195.71 246.909 194.647 247.121 193.495C247.334 192.343 247.222 191.152 246.797 190.065C246.372 188.979 245.654 188.042 244.728 187.368C243.802 186.695 242.709 186.313 241.578 186.269C240.448 186.225 239.33 186.521 238.358 187.12C237.386 187.72 236.602 188.598 236.1 189.649C235.597 190.699 235.399 191.878 235.528 193.043L235.528 193.043Z" fill="#FFB8B8"/>
<path d="M168.629 226.533C166.812 226.75 164.972 226.593 163.214 226.072C161.456 225.551 159.813 224.675 158.381 223.496C156.949 222.317 155.756 220.856 154.868 219.198C153.98 217.54 153.417 215.717 153.209 213.833C153.001 211.949 153.153 210.041 153.656 208.218C154.16 206.395 155.005 204.693 156.143 203.209C157.281 201.725 158.69 200.487 160.289 199.568C161.888 198.648 163.647 198.064 165.464 197.85L198.206 203.409L199.216 219.69L168.629 226.533Z" fill="#2F2E41"/>
<path d="M162.923 171.569C160.903 175.4 157.685 178.402 153.799 180.083C149.913 181.764 145.591 182.022 141.544 180.816C137.498 179.609 133.968 177.01 131.537 173.445C129.105 169.881 127.917 165.564 128.168 161.206C128.419 156.848 130.093 152.708 132.916 149.469C135.739 146.229 139.541 144.083 143.697 143.384C147.854 142.684 152.116 143.474 155.781 145.621C159.447 147.769 162.298 151.148 163.865 155.2C163.95 155.42 164.026 155.64 164.102 155.868C164.988 158.423 165.341 161.143 165.138 163.85C164.935 166.556 164.18 169.187 162.923 171.569Z" fill="#FFB6B6"/>
<path d="M165.587 155.868C164.79 153.555 165.137 154.76 164.332 152.456C164.591 153.591 164.511 154.781 164.102 155.868H142.039V142.569C148.503 139.913 154.822 137.652 158.64 142.569C162.041 142.569 165.303 143.97 167.709 146.465C170.114 148.959 171.465 152.341 171.466 155.868H165.587Z" fill="#2F2E41"/>
<path d="M157.766 192.837C157.749 192.591 157.723 192.336 157.689 192.09C157.393 190.283 156.912 188.514 156.256 186.812C155.62 184.956 154.975 183.092 154.33 181.236C155.16 184.605 154.907 188.162 153.609 191.369C149.885 188.36 152.235 181.482 147.366 181.482C135.66 181.482 123.614 171.639 123.614 159.492C123.614 147.354 128.636 138.277 140.342 138.277C152.057 138.277 161.558 143.836 161.787 155.974C147.366 159.492 160.489 191.606 157.766 192.837Z" fill="#2F2E41"/>
<path d="M125.077 157.632C132.573 157.632 138.649 151.331 138.649 143.558C138.649 135.786 132.573 129.485 125.077 129.485C117.581 129.485 111.504 135.786 111.504 143.558C111.504 151.331 117.581 157.632 125.077 157.632Z" fill="#2F2E41"/>
<path d="M4.29129e-06 516.995C-0.000375252 517.127 0.0244253 517.258 0.0729944 517.38C0.121564 517.502 0.192926 517.613 0.282993 517.707C0.373061 517.8 0.480042 517.874 0.597793 517.924C0.715543 517.975 0.841734 518 0.969106 518H229.223C229.48 518 229.726 517.894 229.908 517.706C230.09 517.517 230.192 517.262 230.192 516.995C230.192 516.729 230.09 516.473 229.908 516.285C229.726 516.096 229.48 515.99 229.223 515.99H0.969106C0.841736 515.99 0.715566 516.016 0.597818 516.066C0.480069 516.116 0.373085 516.19 0.283018 516.284C0.192951 516.377 0.121565 516.488 0.0729944 516.61C0.0244237 516.732 -0.000370928 516.863 4.29129e-06 516.995Z" fill="#CCCCCC"/>
</g>
<defs>
<clipPath id="clip0_796_1101">
<rect width="531" height="518" fill="white"/>
</clipPath>
</defs>
</svg>
