<svg width="25" height="24" viewBox="0 0 25 24" fill="none" xmlns="http://www.w3.org/2000/svg">
<path d="M24.5238 12.2756C24.5238 11.4599 24.4577 10.6397 24.3165 9.83722H12.9978V14.4582H19.4795C19.2105 15.9486 18.3463 17.267 17.0808 18.1047V21.103H20.9478C23.2187 19.013 24.5238 15.9265 24.5238 12.2756Z" fill="#4285F4"/>
<path d="M12.9978 24C16.2342 24 18.9637 22.9373 20.9522 21.103L17.0852 18.1047C16.0094 18.8367 14.6204 19.2512 13.0022 19.2512C9.87158 19.2512 7.21716 17.139 6.26475 14.2995H2.27429V17.3903C4.31141 21.4427 8.4606 24 12.9978 24Z" fill="#34A853"/>
<path d="M6.26034 14.2995C5.75767 12.8091 5.75767 11.1953 6.26034 9.70495V6.614H2.27431C0.572302 10.0048 0.572302 13.9996 2.27431 17.3903L6.26034 14.2995Z" fill="#FBBC04"/>
<path d="M12.9978 4.74885C14.7086 4.7224 16.3621 5.36615 17.6011 6.54787L21.0272 3.1218C18.8578 1.0847 15.9785 -0.0352747 12.9978 -5.29108e-08C8.46058 -5.29108e-08 4.31141 2.55742 2.27429 6.614L6.26033 9.70495C7.20833 6.86092 9.86716 4.74885 12.9978 4.74885Z" fill="#EA4335"/>
</svg>
