<svg width="421" height="168" viewBox="0 0 421 168" fill="none" xmlns="http://www.w3.org/2000/svg">
<path d="M235.63 32.6033H186.217C178.816 32.6033 172.815 38.5733 172.815 45.9376V111.978C172.815 119.342 178.816 125.312 186.217 125.312H235.63C243.031 125.312 249.032 119.342 249.032 111.978V45.9376C249.032 38.5733 243.031 32.6033 235.63 32.6033Z" fill="#DFEFF7"/>
<path d="M235.63 126.014H186.217C182.476 126.01 178.89 124.53 176.246 121.898C173.601 119.267 172.113 115.699 172.109 111.977V45.9376C172.113 42.2161 173.601 38.6482 176.246 36.0167C178.891 33.3852 182.477 31.905 186.217 31.9009H235.63C239.37 31.905 242.956 33.3852 245.601 36.0167C248.246 38.6482 249.734 42.2161 249.738 45.9376V111.977C249.734 115.699 248.246 119.267 245.601 121.898C242.957 124.53 239.37 126.01 235.63 126.014ZM186.217 33.3053C182.851 33.309 179.624 34.6411 177.243 37.0092C174.863 39.3774 173.524 42.5882 173.521 45.9373V111.977C173.524 115.326 174.863 118.537 177.243 120.905C179.624 123.274 182.851 124.606 186.217 124.61H235.63C238.996 124.606 242.223 123.274 244.604 120.906C246.984 118.537 248.323 115.326 248.326 111.977V45.9376C248.323 42.5885 246.984 39.3776 244.604 37.0095C242.223 34.6413 238.996 33.3093 235.63 33.3056L186.217 33.3053Z" fill="#277BC0"/>
<path d="M209.269 98.0775L207.168 94.2199L207.125 94.2455L200.056 81.275L203.328 79.3615L210.387 92.3177L239.526 75.2767C239.014 71.2733 237.653 67.4238 235.533 63.983L211.649 77.9501L209.977 74.8823L209.942 74.9022L204.323 64.5873L206.925 63.0658L212.54 73.3694L233.505 61.1096C229.302 55.8494 223.375 52.2248 216.76 50.8681C210.144 49.5115 203.26 50.5091 197.308 53.6867C191.357 56.8644 186.716 62.0204 184.194 68.2551C181.673 74.4897 181.433 81.4072 183.514 87.8005C185.595 94.1938 189.867 99.657 195.583 103.237C201.3 106.817 208.098 108.286 214.792 107.388C221.486 106.49 227.65 103.282 232.21 98.3236C236.769 93.3654 239.434 86.9717 239.74 80.2582L209.269 98.0775Z" fill="#F0F9FF"/>
<path d="M210.94 108.347C205.94 108.348 201.021 107.087 196.645 104.68C192.268 102.274 188.577 98.8013 185.918 94.5881C183.258 90.375 181.718 85.5591 181.44 80.5917C181.161 75.6242 182.155 70.6679 184.328 66.187C186.501 61.7061 189.781 57.8473 193.862 54.9722C197.943 52.0971 202.691 50.2999 207.66 49.7487C212.63 49.1976 217.659 49.9108 222.276 51.8213C226.893 53.7318 230.947 56.7772 234.058 60.6722L234.564 61.3051L212.268 74.3434L206.653 64.0395L205.27 64.8491L210.218 73.9307L210.252 73.9107L211.923 76.9766L235.775 63.0289L236.137 63.6164C238.313 67.1399 239.708 71.0851 240.229 75.1882L240.288 75.648L210.116 93.2909L203.057 80.3349L201.003 81.5359L207.396 93.2709L207.44 93.2453L209.542 97.1034L240.503 78.9993L240.445 80.2916C240.116 87.8523 236.862 94.9937 231.363 100.222C225.864 105.451 218.546 108.362 210.94 108.347ZM210.94 50.9726C205.488 50.9722 200.153 52.5487 195.584 55.5101C191.016 58.4715 187.411 62.6902 185.209 67.6528C183.006 72.6154 182.301 78.108 183.178 83.4622C184.056 88.8165 186.479 93.8014 190.152 97.8106C193.825 101.82 198.591 104.68 203.868 106.044C209.146 107.407 214.708 107.216 219.877 105.492C225.047 103.767 229.602 100.586 232.987 96.3329C236.372 92.0802 238.442 86.9403 238.945 81.5384L208.997 99.0514L206.895 95.1942L206.852 95.2198L199.11 81.0136L203.6 78.388L210.659 91.3442L238.764 74.9095C238.26 71.396 237.079 68.0122 235.287 64.9432L211.377 78.9252L209.705 75.8554L209.67 75.8753L203.377 64.3272L207.197 62.0931L212.813 72.3973L232.437 60.9219C229.804 57.7992 226.514 55.2896 222.8 53.5704C219.085 51.8513 215.037 50.9644 210.94 50.9726Z" fill="#277BC0"/>
<path d="M155.072 160V140.12H163.5C164.415 140.12 165.255 140.307 166.02 140.68C166.785 141.053 167.448 141.557 168.008 142.192C168.587 142.827 169.035 143.536 169.352 144.32C169.669 145.104 169.828 145.907 169.828 146.728C169.828 147.848 169.567 148.912 169.044 149.92C168.521 150.928 167.803 151.749 166.888 152.384C165.973 153.019 164.891 153.336 163.64 153.336H158.936V160H155.072ZM158.936 149.948H163.416C163.883 149.948 164.303 149.817 164.676 149.556C165.049 149.295 165.348 148.921 165.572 148.436C165.796 147.932 165.908 147.363 165.908 146.728C165.908 146.037 165.777 145.449 165.516 144.964C165.273 144.479 164.947 144.115 164.536 143.872C164.144 143.629 163.715 143.508 163.248 143.508H158.936V149.948ZM180.889 148.576C179.751 148.576 178.733 148.8 177.837 149.248C176.941 149.677 176.297 150.303 175.905 151.124V160H172.153V145.328H175.597V148.464C176.12 147.456 176.783 146.663 177.585 146.084C178.388 145.505 179.237 145.188 180.133 145.132C180.339 145.132 180.497 145.132 180.609 145.132C180.721 145.132 180.815 145.141 180.889 145.16V148.576ZM189.566 160.28C188.371 160.28 187.298 160.084 186.346 159.692C185.394 159.281 184.582 158.721 183.91 158.012C183.257 157.303 182.753 156.491 182.398 155.576C182.043 154.661 181.866 153.7 181.866 152.692C181.866 151.665 182.043 150.695 182.398 149.78C182.753 148.865 183.257 148.053 183.91 147.344C184.582 146.635 185.394 146.084 186.346 145.692C187.298 145.281 188.371 145.076 189.566 145.076C190.761 145.076 191.825 145.281 192.758 145.692C193.71 146.084 194.522 146.635 195.194 147.344C195.866 148.053 196.37 148.865 196.706 149.78C197.061 150.695 197.238 151.665 197.238 152.692C197.238 153.7 197.061 154.661 196.706 155.576C196.37 156.491 195.866 157.303 195.194 158.012C194.541 158.721 193.738 159.281 192.786 159.692C191.834 160.084 190.761 160.28 189.566 160.28ZM185.73 152.692C185.73 153.551 185.898 154.316 186.234 154.988C186.57 155.641 187.027 156.155 187.606 156.528C188.185 156.901 188.838 157.088 189.566 157.088C190.275 157.088 190.919 156.901 191.498 156.528C192.077 156.136 192.534 155.613 192.87 154.96C193.225 154.288 193.402 153.523 193.402 152.664C193.402 151.824 193.225 151.068 192.87 150.396C192.534 149.724 192.077 149.201 191.498 148.828C190.919 148.455 190.275 148.268 189.566 148.268C188.838 148.268 188.185 148.464 187.606 148.856C187.027 149.229 186.57 149.752 186.234 150.424C185.898 151.077 185.73 151.833 185.73 152.692ZM212.241 143.508H205.885V160H202.049V143.508H195.693V140.12H212.241V143.508ZM221.686 148.576C220.548 148.576 219.53 148.8 218.634 149.248C217.738 149.677 217.094 150.303 216.702 151.124V160H212.95V145.328H216.394V148.464C216.917 147.456 217.58 146.663 218.382 146.084C219.185 145.505 220.034 145.188 220.93 145.132C221.136 145.132 221.294 145.132 221.406 145.132C221.518 145.132 221.612 145.141 221.686 145.16V148.576ZM222.688 155.66C222.688 154.708 222.95 153.877 223.472 153.168C224.014 152.44 224.76 151.88 225.712 151.488C226.664 151.096 227.756 150.9 228.988 150.9C229.604 150.9 230.23 150.947 230.864 151.04C231.499 151.133 232.05 151.283 232.516 151.488V150.704C232.516 149.771 232.236 149.052 231.676 148.548C231.135 148.044 230.323 147.792 229.24 147.792C228.438 147.792 227.672 147.932 226.944 148.212C226.216 148.492 225.451 148.903 224.648 149.444L223.444 146.98C224.415 146.345 225.404 145.869 226.412 145.552C227.439 145.235 228.512 145.076 229.632 145.076C231.723 145.076 233.347 145.599 234.504 146.644C235.68 147.689 236.268 149.183 236.268 151.124V155.8C236.268 156.192 236.334 156.472 236.464 156.64C236.614 156.808 236.847 156.911 237.164 156.948V160C236.828 160.056 236.52 160.103 236.24 160.14C235.979 160.177 235.755 160.196 235.568 160.196C234.822 160.196 234.252 160.028 233.86 159.692C233.487 159.356 233.254 158.945 233.16 158.46L233.076 157.704C232.442 158.525 231.648 159.16 230.696 159.608C229.744 160.056 228.774 160.28 227.784 160.28C226.814 160.28 225.936 160.084 225.152 159.692C224.387 159.281 223.78 158.731 223.332 158.04C222.903 157.331 222.688 156.537 222.688 155.66ZM231.816 156.416C232.022 156.192 232.19 155.968 232.32 155.744C232.451 155.52 232.516 155.315 232.516 155.128V153.644C232.068 153.457 231.583 153.317 231.06 153.224C230.538 153.112 230.043 153.056 229.576 153.056C228.606 153.056 227.803 153.271 227.168 153.7C226.552 154.111 226.244 154.661 226.244 155.352C226.244 155.725 226.347 156.08 226.552 156.416C226.758 156.752 227.056 157.023 227.448 157.228C227.84 157.433 228.307 157.536 228.848 157.536C229.408 157.536 229.959 157.433 230.5 157.228C231.042 157.004 231.48 156.733 231.816 156.416ZM246.606 160.28C245.412 160.28 244.338 160.084 243.386 159.692C242.434 159.281 241.622 158.721 240.95 158.012C240.278 157.284 239.756 156.463 239.382 155.548C239.028 154.633 238.85 153.672 238.85 152.664C238.85 151.283 239.158 150.023 239.774 148.884C240.409 147.727 241.305 146.803 242.462 146.112C243.62 145.421 244.992 145.076 246.578 145.076C248.165 145.076 249.528 145.421 250.666 146.112C251.805 146.803 252.654 147.708 253.214 148.828L249.546 149.948C249.229 149.407 248.809 148.996 248.286 148.716C247.764 148.417 247.185 148.268 246.55 148.268C245.841 148.268 245.188 148.455 244.59 148.828C244.012 149.183 243.554 149.696 243.218 150.368C242.882 151.021 242.714 151.787 242.714 152.664C242.714 153.523 242.882 154.288 243.218 154.96C243.573 155.613 244.04 156.136 244.618 156.528C245.197 156.901 245.841 157.088 246.55 157.088C246.998 157.088 247.418 157.013 247.81 156.864C248.221 156.715 248.585 156.509 248.902 156.248C249.22 155.987 249.453 155.688 249.602 155.352L253.27 156.472C252.934 157.2 252.44 157.853 251.786 158.432C251.152 159.011 250.396 159.468 249.518 159.804C248.66 160.121 247.689 160.28 246.606 160.28ZM265.603 160L261.319 153.672L259.331 155.632V160H255.579V139.56H259.331V151.936L265.239 145.356H269.215L263.755 151.572L269.607 160H265.603Z" fill="white"/>
</svg>
